<?xml version="1.0" encoding="utf-8"?>
<!-- Generator: Adobe Illustrator 16.0.0, SVG Export Plug-In . SVG Version: 6.00 Build 0)  -->
<!DOCTYPE svg PUBLIC "-//W3C//DTD SVG 1.1//EN" "http://www.w3.org/Graphics/SVG/1.1/DTD/svg11.dtd">
<svg version="1.1" id="Layer_1" xmlns="http://www.w3.org/2000/svg" xmlns:xlink="http://www.w3.org/1999/xlink" x="0px" y="0px"
	 width="400px" height="400px" viewBox="0 0 400 400" enable-background="new 0 0 400 400" xml:space="preserve">
<path d="M58.01,378.514c15.777,0,31.555-31.555,63.107-31.555s47.33,31.555,79.514,31.555c30.924,0,46.701-31.555,78.256-31.555
	c39.754,0,47.33,31.555,63.105,31.555c8.203,0,15.775-8.204,15.775-15.779V180.988c0-212.67-315.533-212.67-315.533,0v181.746
	C42.234,370.31,50.438,378.514,58.01,378.514z M136.895,220.745c-17.67,0-31.555-13.884-31.555-31.553
	c0-17.67,13.885-31.554,31.555-31.554c17.668,0,31.553,13.884,31.553,31.554C168.447,206.861,154.562,220.745,136.895,220.745z
	 M263.107,220.745c-17.67,0-31.553-13.884-31.553-31.553c0-17.67,13.883-31.554,31.553-31.554s31.555,13.884,31.555,31.554
	C294.662,206.861,280.777,220.745,263.107,220.745z"/>
<path fill="none" stroke="#C1C1C1" stroke-width="18" stroke-miterlimit="10" d="M469.01,378.514
	c15.777,0,31.555-31.555,63.107-31.555s47.33,31.555,79.514,31.555c30.924,0,46.701-31.555,78.256-31.555
	c39.754,0,47.33,31.555,63.105,31.555c8.203,0,15.775-8.204,15.775-15.779V180.988c0-212.67-315.533-212.67-315.533,0v181.746
	C453.234,370.31,461.438,378.514,469.01,378.514z M547.895,220.745c-17.67,0-31.555-13.884-31.555-31.553
	c0-17.67,13.885-31.554,31.555-31.554c17.668,0,31.553,13.884,31.553,31.554C579.447,206.861,565.562,220.745,547.895,220.745z
	 M674.107,220.745c-17.67,0-31.553-13.884-31.553-31.553c0-17.67,13.883-31.554,31.553-31.554s31.555,13.884,31.555,31.554
	C705.662,206.861,691.777,220.745,674.107,220.745z"/>
</svg>
